<svg width="32" height="32" viewBox="0 0 32 32" fill="none" xmlns="http://www.w3.org/2000/svg">
<rect width="32" height="32" fill="#0F973D"/>
<path d="M9.09264 13.0265C10.04 13.5538 10.8465 14.106 11.2207 15.1686C11.4031 15.8593 11.2678 16.5111 10.9287 17.1358C10.5156 17.725 10.0384 18.0289 9.39865 18.338C9.22033 18.4272 9.04205 18.5164 8.86381 18.6057C8.77233 18.651 8.68084 18.6964 8.58658 18.743C8.30262 18.886 8.02222 19.0344 7.74223 19.185C7.65167 19.2335 7.56111 19.282 7.46781 19.3319C7.29368 19.4254 7.11983 19.5193 6.94629 19.6139C6.86723 19.6558 6.78817 19.6978 6.70671 19.741C6.60297 19.7969 6.60297 19.7969 6.49714 19.8539C6.25825 19.948 6.11255 19.9677 5.85767 19.9336C5.62622 19.8146 5.62622 19.8146 5.38123 19.6498C5.2927 19.591 5.20417 19.5322 5.11296 19.4717C5.0215 19.4095 4.93004 19.3474 4.83581 19.2833C4.65335 19.1614 4.47086 19.0394 4.28834 18.9176C4.20779 18.8631 4.12724 18.8086 4.04425 18.7524C3.85482 18.6218 3.85482 18.6218 3.67188 18.5347C3.67188 18.477 3.67188 18.4193 3.67188 18.3598C3.75058 18.3194 3.82928 18.2789 3.91037 18.2373C4.21041 18.0831 4.51039 17.9287 4.81035 17.7744C4.94356 17.7058 5.07678 17.6373 5.21001 17.5689C6.15927 17.0811 6.15927 17.0811 7.10323 16.5832C7.21687 16.5225 7.21687 16.5225 7.3328 16.4605C7.46731 16.3883 7.60156 16.3156 7.73551 16.2424C8.04019 16.0788 8.31033 15.9546 8.65548 15.9118C8.65548 15.854 8.65548 15.7963 8.65548 15.7369C8.59676 15.7168 8.53804 15.6968 8.47754 15.6761C8.1474 15.5308 7.86506 15.3389 7.56805 15.1358C7.51187 15.0978 7.45568 15.0598 7.3978 15.0207C7.287 14.9458 7.17641 14.8706 7.06604 14.795C6.9613 14.7244 6.85551 14.6553 6.74868 14.5879C6.62378 14.5088 6.50258 14.4239 6.38226 14.338C6.38226 14.2803 6.38226 14.2226 6.38226 14.1631C6.81525 13.9326 7.24875 13.703 7.68285 13.4746C7.839 13.3919 7.99442 13.3079 8.14968 13.2236C8.22462 13.1838 8.29957 13.144 8.37679 13.103C8.44047 13.0685 8.50415 13.034 8.56976 12.9985C8.79417 12.9215 8.87202 12.9377 9.09264 13.0265Z" fill="white"/>
<path d="M18.5988 20.1743C19.1847 20.501 19.5653 20.984 19.9793 21.5032C20.1634 21.7326 20.351 21.9573 20.5425 22.1804C20.664 22.3227 20.7834 22.4667 20.9028 22.6108C21.0756 22.8177 21.2563 23.012 21.4451 23.2043C21.7229 23.499 21.9378 23.764 22.1166 24.1302C22.0915 24.5563 21.9492 24.8908 21.7627 25.2665C21.6154 25.5764 21.5062 25.9007 21.3898 26.2231C21.3122 26.4292 21.2335 26.6349 21.1548 26.8406C21.0971 26.8406 21.0394 26.8406 20.98 26.8406C20.8561 26.7052 20.7388 26.5637 20.6248 26.4199C20.5538 26.3312 20.4828 26.2425 20.4096 26.1511C20.3381 26.0612 20.2667 25.9714 20.1931 25.8789C20.0713 25.7293 19.9493 25.5799 19.827 25.4308C19.7628 25.3523 19.6987 25.2739 19.6326 25.1931C19.4576 24.9795 19.2819 24.7665 19.106 24.5537C18.9984 24.4235 18.8908 24.2933 18.7832 24.163C18.7303 24.099 18.6773 24.035 18.6227 23.969C18.2975 23.5747 17.9804 23.1761 17.678 22.7638C17.6424 22.7242 17.6068 22.6847 17.5701 22.6439C17.5124 22.6439 17.4547 22.6439 17.3953 22.6439C17.3445 22.7881 17.3445 22.7881 17.2928 22.9352C17.0392 23.6555 16.7841 24.3751 16.5209 25.092C16.0905 24.9208 15.879 24.5795 15.6002 24.2245C15.4567 24.0456 15.3072 23.8715 15.1521 23.7026C14.5959 23.0881 14.5959 23.0881 14.6029 22.6603C14.6554 22.5365 14.7127 22.4147 14.7723 22.2942C14.8096 22.1972 14.8469 22.1003 14.8854 22.0005C15.2634 21.0396 15.6274 20.4742 16.5892 20.0302C17.2826 19.792 17.9394 19.8708 18.5988 20.1743Z" fill="white"/>
<path d="M15.8289 3.23438C15.8866 3.23438 15.9443 3.23438 16.0038 3.23438C16.388 4.77126 16.388 4.77126 16.4587 5.05396C16.5038 5.2346 16.5491 5.41522 16.5945 5.5958C16.7571 6.24299 16.9142 6.89139 17.0694 7.54039C17.0932 7.6399 17.117 7.73942 17.1416 7.84196C17.1995 8.08386 17.2574 8.32578 17.3153 8.56771C17.7616 8.29609 18.1023 7.9711 18.4628 7.59503C18.5683 7.4851 18.6741 7.37557 18.7804 7.26648C18.8265 7.21834 18.8727 7.1702 18.9202 7.1206C19.0748 6.98432 19.2262 6.90305 19.4136 6.81907C19.5004 7.13572 19.5855 7.45276 19.6705 7.76989C19.6948 7.85848 19.719 7.94707 19.7441 8.03834C19.814 8.3013 19.8781 8.56463 19.9382 8.83C19.9565 8.90934 19.9748 8.98868 19.9937 9.07042C20.0851 9.59742 20.0851 9.59742 19.9326 9.87184C19.7917 10.0327 19.645 10.165 19.4792 10.2999C19.423 10.3483 19.3667 10.3966 19.3088 10.4464C18.5958 11.0395 17.9363 11.3665 16.9901 11.3259C16.3162 11.2136 15.6475 10.885 15.241 10.3208C14.8366 9.67071 14.6786 8.91294 14.5175 8.17427C14.4954 8.07518 14.4733 7.97609 14.4505 7.874C14.4061 7.67458 14.3619 7.4751 14.318 7.27557C14.261 7.02026 14.2016 6.76574 14.1408 6.51136C14.1239 6.43979 14.1071 6.36822 14.0897 6.29448C14.0589 6.16376 14.0275 6.03317 13.9954 5.90275C13.9182 5.56779 13.8607 5.30531 13.9929 4.98301C14.1673 4.79516 14.336 4.63083 14.5284 4.46388C14.5799 4.4178 14.6313 4.37172 14.6844 4.32424C14.9532 4.08452 15.2262 3.84974 15.5011 3.61689C15.7425 3.4353 15.7425 3.4353 15.8289 3.23438Z" fill="white"/>
<path d="M10.9274 7.43359C11.3809 7.57385 11.8068 7.75842 12.2389 7.95272C12.3413 7.99828 12.3413 7.99828 12.4459 8.04476C12.5789 8.10421 12.7116 8.16438 12.8439 8.22535C13.0041 8.29808 13.1668 8.36542 13.3297 8.43189C13.5504 8.57021 13.5504 8.57021 13.6399 8.78537C13.6734 9.06347 13.7043 9.34001 13.7252 9.61939C13.7335 9.71338 13.7417 9.80738 13.7502 9.90422C13.7877 10.7031 13.6321 11.3926 13.1115 12.0169C12.5355 12.5697 11.9845 12.7719 11.1952 12.8052C10.6591 12.7884 10.2705 12.645 9.79081 12.4172C9.60146 12.3323 9.41167 12.2485 9.22187 12.1646C9.0153 12.0731 8.80914 11.9808 8.60297 11.8885C8.28704 11.7478 7.96897 11.6135 7.64874 11.4828C7.56781 11.4481 7.48689 11.4133 7.40352 11.3776C7.16753 11.2767 7.16753 11.2767 6.91581 11.2C6.6629 11.1063 6.49162 11.0271 6.29355 10.8434C6.14496 10.444 6.13454 10.041 6.11868 9.61939C6.10978 9.46955 6.10054 9.31973 6.09102 9.16993C6.06645 8.76614 6.04762 8.36238 6.03125 7.95818C7.7745 8.66431 9.48146 9.44492 11.1897 10.2314C11.1777 10.1598 11.1657 10.0882 11.1534 10.0145C11.0551 9.40618 10.9841 8.80869 10.9602 8.19316C10.9551 8.082 10.9551 8.082 10.95 7.9686C10.9419 7.79029 10.9346 7.61194 10.9274 7.43359Z" fill="white"/>
<path d="M23.6936 7.69313C23.9343 7.7287 24.1754 7.76165 24.4165 7.79462C24.7879 7.84573 25.1588 7.90052 25.5296 7.95542C25.3933 8.40042 25.119 8.7044 24.8247 9.05378C24.7207 9.17934 24.6169 9.30502 24.5132 9.43083C24.4625 9.49237 24.4118 9.5539 24.3595 9.61731C24.1079 9.92737 23.8728 10.249 23.6355 10.5702C23.3421 10.9588 23.0367 11.3376 22.7304 11.7162C22.6877 11.7691 22.645 11.822 22.601 11.8765C22.563 11.9234 22.5249 11.9703 22.4858 12.0186C22.3868 12.1461 22.2967 12.2802 22.2072 12.4144C22.5605 12.542 22.8883 12.6215 23.2612 12.6638C23.3581 12.675 23.455 12.6863 23.5549 12.6979C23.7047 12.7145 23.7047 12.7145 23.8575 12.7314C23.9594 12.7431 24.0613 12.7548 24.1662 12.7669C24.4166 12.7956 24.6671 12.8238 24.9176 12.8516C24.7401 13.2198 24.5079 13.5048 24.2448 13.8171C24.0948 14.0095 23.9777 14.1823 23.8582 14.3916C23.657 14.7264 23.48 14.969 23.169 15.2123C22.642 15.3257 22.1042 15.1779 21.5952 15.0374C21.5057 15.0135 21.4162 14.9896 21.324 14.965C20.6672 14.7413 20.127 14.3254 19.8083 13.7041C19.5113 13.0381 19.4534 12.3199 19.6676 11.6159C19.952 11.003 20.3643 10.512 20.8076 10.0104C21.0968 9.68012 21.3565 9.3303 21.6171 8.97728C21.7057 8.8593 21.7944 8.74136 21.8831 8.62345C22.0229 8.43721 22.157 8.2505 22.2882 8.05788C22.7066 7.48672 23.0385 7.5651 23.6936 7.69313Z" fill="white"/>
<path d="M12.8843 19.0722C13.4456 19.4592 13.7602 19.9046 13.9919 20.5445C14.0833 21.3072 14.0053 22.0165 13.7978 22.7538C13.6053 23.4424 13.4847 24.1444 13.3582 24.8476C13.3408 24.9419 13.3234 25.0362 13.3054 25.1333C13.2827 25.2601 13.2827 25.2601 13.2595 25.3894C13.1652 25.7813 13.1652 25.7813 13.0302 25.9653C12.7803 26.0852 12.7803 26.0852 12.4646 26.1907C12.409 26.2096 12.3534 26.2285 12.2961 26.248C12.1186 26.308 11.9405 26.3661 11.7624 26.4243C11.6425 26.4647 11.5226 26.5052 11.4028 26.5459C10.5285 26.8396 10.5285 26.8396 10.3198 26.8396C10.5641 25.5423 10.8193 24.2475 11.0848 22.9543C11.0983 22.8884 11.1118 22.8224 11.1257 22.7545C11.1643 22.5662 11.203 22.3779 11.2419 22.1897C11.2643 22.081 11.2867 21.9723 11.3098 21.8603C11.369 21.5937 11.369 21.5937 11.4564 21.3314C10.5801 21.5875 9.70518 21.8469 8.83345 22.1183C8.8009 21.5349 8.92312 20.998 9.04657 20.4298C9.06669 20.3339 9.0868 20.238 9.10753 20.1393C9.2577 19.4337 9.2577 19.4337 9.35804 19.233C10.5579 18.7274 11.6814 18.3968 12.8843 19.0722Z" fill="white"/>
<path d="M22.6188 16.0299C22.7784 16.0273 22.7784 16.0273 22.9411 16.0247C23.1654 16.0219 23.3897 16.0198 23.614 16.0184C23.9566 16.0152 24.2988 16.006 24.6414 15.9966C24.8597 15.9946 25.0781 15.9929 25.2964 15.9916C25.4495 15.9861 25.4495 15.9861 25.6056 15.9805C26.3008 15.9861 26.3008 15.9861 26.6023 16.2738C26.7604 16.4966 26.8916 16.7185 27.0177 16.9606C27.0946 17.0893 27.1718 17.2177 27.2496 17.3458C27.3167 17.4649 27.3833 17.5842 27.4494 17.7037C27.5016 17.7957 27.5016 17.7957 27.5548 17.8895C27.8046 18.3367 27.8046 18.3367 27.8046 18.5343C25.9292 18.5343 24.0538 18.5343 22.1216 18.5343C22.1216 18.592 22.1216 18.6498 22.1216 18.7092C22.1793 18.7092 22.237 18.7092 22.2964 18.7092C22.3398 18.7864 22.3832 18.8636 22.4279 18.9432C22.7678 19.5446 23.1167 20.1343 23.4986 20.7106C23.6079 20.895 23.6079 20.895 23.6079 21.0699C22.6269 21.0699 21.6459 21.0699 20.6352 21.0699C20.509 20.8463 20.3828 20.6226 20.2527 20.3923C20.2132 20.3224 20.1737 20.2526 20.133 20.1806C20.1015 20.1247 20.07 20.0687 20.0375 20.0111C20.0055 19.9543 19.9734 19.8976 19.9404 19.8391C19.91 19.7836 19.8797 19.7281 19.8483 19.671C19.8163 19.6131 19.7842 19.5552 19.7511 19.4956C19.5187 18.9738 19.5897 18.1302 19.7438 17.5869C20.0655 16.9548 20.6589 16.4146 21.3125 16.143C21.7366 16.0208 22.1805 16.0359 22.6188 16.0299Z" fill="white"/>
</svg>
